<?xml version="1.0" encoding="UTF-8"?>
<svg id="uuid-a1e3a5f4-836c-4899-8cab-3772b77ce5b4" data-name="Capa 2" xmlns="http://www.w3.org/2000/svg" viewBox="0 0 380.99 47.88">
  <g id="uuid-99ae5618-ebb2-4e8a-ba4b-02bf319a9451" data-name="Capa 1">
    <g>
      <path d="M13.14,0h9.78l-13.14,47.88H0L13.14,0Z" style="fill: #d68612; stroke-width: 0px;"/>
      <path d="M37.86,0h9.78l-13.14,47.88h-9.78L37.86,0Z" style="fill: #d68612; stroke-width: 0px;"/>
      <path d="M49.56,30.12h14.46V2.82h15.24v21.54c0,7.74,0,21.18-14.52,21.18-9.66,0-15.18-5.58-15.18-15.42Z" style="fill: #fff; stroke-width: 0px;"/>
      <path d="M83.76,23.76c0-12.48,9.18-21.66,21.78-21.66s21.66,9.18,21.66,21.66-9.18,21.78-21.6,21.78-21.84-9.18-21.84-21.78Z" style="fill: #fff; stroke-width: 0px;"/>
      <path d="M132.3,2.82h32.1v14.76h-17.34v4.74h14.1v2.76h-14.1v4.98h17.34v14.76h-32.1V2.82Z" style="fill: #fff; stroke-width: 0px;"/>
      <path d="M170.94,2.82h15v27.24h15.12v14.76h-30.12V2.82Z" style="fill: #fff; stroke-width: 0px;"/>
      <path d="M221.28,2.82h15v27.24h15.12v14.76h-30.12V2.82Z" style="fill: #fff; stroke-width: 0px;"/>
      <path d="M268.19,17.58h-11.58V2.82h35.1l-13.26,27.24h11.82v14.76h-35.46l13.38-27.24Z" style="fill: #fff; stroke-width: 0px;"/>
      <path d="M294,2.82h36.78v14.76h-10.38v27.24h-15v-27.24h-11.4V2.82Z" style="fill: #fff; stroke-width: 0px;"/>
      <path d="M346.49,0h9.78l-13.14,47.88h-9.78L346.49,0Z" style="fill: #d68612; stroke-width: 0px;"/>
      <path d="M371.21,0h9.78l-13.14,47.88h-9.78L371.21,0Z" style="fill: #d68612; stroke-width: 0px;"/>
    </g>
  </g>
</svg>